<?xml version="1.0" encoding="UTF-8" standalone="no"?>
<svg width="473px" height="966px" viewBox="0 0 473 966" version="1.1" xmlns="http://www.w3.org/2000/svg" xmlns:xlink="http://www.w3.org/1999/xlink">
    <!-- Generator: Sketch 3.7.2 (28276) - http://www.bohemiancoding.com/sketch -->
    <title>Group 5</title>
    <desc>Created with Sketch.</desc>
    <defs>
        <radialGradient cx="50%" cy="50%" fx="50%" fy="50%" r="473.800223%" id="radialGradient-1">
            <stop stop-color="#FFFFFF" offset="0%"></stop>
            <stop stop-color="#000000" offset="100%"></stop>
        </radialGradient>
        <rect id="path-2" x="0" y="122" width="7" height="39" rx="72"></rect>
        <filter x="-50%" y="-50%" width="200%" height="200%" filterUnits="objectBoundingBox" id="filter-3">
            <feOffset dx="1" dy="0" in="SourceAlpha" result="shadowOffsetInner1"></feOffset>
            <feComposite in="shadowOffsetInner1" in2="SourceAlpha" operator="arithmetic" k2="-1" k3="1" result="shadowInnerInner1"></feComposite>
            <feColorMatrix values="0 0 0 0 1   0 0 0 0 1   0 0 0 0 1  0 0 0 0.362205616 0" type="matrix" in="shadowInnerInner1"></feColorMatrix>
        </filter>
        <radialGradient cx="50%" cy="50%" fx="50%" fy="50%" r="641.40625%" id="radialGradient-4">
            <stop stop-color="#FFFFFF" offset="0%"></stop>
            <stop stop-color="#000000" offset="100%"></stop>
        </radialGradient>
        <rect id="path-5" x="0" y="205" width="7" height="73" rx="72"></rect>
        <filter x="-50%" y="-50%" width="200%" height="200%" filterUnits="objectBoundingBox" id="filter-6">
            <feOffset dx="1" dy="0" in="SourceAlpha" result="shadowOffsetInner1"></feOffset>
            <feComposite in="shadowOffsetInner1" in2="SourceAlpha" operator="arithmetic" k2="-1" k3="1" result="shadowInnerInner1"></feComposite>
            <feColorMatrix values="0 0 0 0 1   0 0 0 0 1   0 0 0 0 1  0 0 0 0.362205616 0" type="matrix" in="shadowInnerInner1"></feColorMatrix>
        </filter>
        <radialGradient cx="50%" cy="50%" fx="50%" fy="50%" r="568.889509%" id="radialGradient-7">
            <stop stop-color="#FFFFFF" offset="0%"></stop>
            <stop stop-color="#000000" offset="100%"></stop>
        </radialGradient>
        <rect id="path-8" x="466" y="204" width="7" height="73" rx="72"></rect>
        <filter x="-50%" y="-50%" width="200%" height="200%" filterUnits="objectBoundingBox" id="filter-9">
            <feOffset dx="-1" dy="0" in="SourceAlpha" result="shadowOffsetInner1"></feOffset>
            <feComposite in="shadowOffsetInner1" in2="SourceAlpha" operator="arithmetic" k2="-1" k3="1" result="shadowInnerInner1"></feComposite>
            <feColorMatrix values="0 0 0 0 1   0 0 0 0 1   0 0 0 0 1  0 0 0 0.547327899 0" type="matrix" in="shadowInnerInner1"></feColorMatrix>
        </filter>
        <rect id="path-10" x="0" y="293" width="7" height="73" rx="72"></rect>
        <filter x="-50%" y="-50%" width="200%" height="200%" filterUnits="objectBoundingBox" id="filter-11">
            <feOffset dx="1" dy="0" in="SourceAlpha" result="shadowOffsetInner1"></feOffset>
            <feComposite in="shadowOffsetInner1" in2="SourceAlpha" operator="arithmetic" k2="-1" k3="1" result="shadowInnerInner1"></feComposite>
            <feColorMatrix values="0 0 0 0 1   0 0 0 0 1   0 0 0 0 1  0 0 0 0.362205616 0" type="matrix" in="shadowInnerInner1"></feColorMatrix>
        </filter>
        <path d="M261.609134,966 L401.007692,966 C439.663376,966 471,934.664609 471,895.993101 L471,70.0068989 C471,31.3431563 439.659271,0 401.007692,0 L71.992308,0 C33.3366237,0 2,31.3353908 2,70.0068989 L2,895.993101 C2,934.656844 33.340729,966 71.992308,966 L81.7622356,966 C84.9737686,964.758825 89.2742045,964 94,964 C98.7257955,964 103.026231,964.758825 106.237764,966 L213.39236,966 C214.444297,965.365401 215.676471,965 216.993699,965 L258.006301,965 C259.323624,965 260.556522,965.36518 261.609134,966 Z" id="path-12"></path>
        <filter x="-50%" y="-50%" width="200%" height="200%" filterUnits="objectBoundingBox" id="filter-13">
            <feGaussianBlur stdDeviation="2.5" in="SourceAlpha" result="shadowBlurInner1"></feGaussianBlur>
            <feOffset dx="0" dy="0" in="shadowBlurInner1" result="shadowOffsetInner1"></feOffset>
            <feComposite in="shadowOffsetInner1" in2="SourceAlpha" operator="arithmetic" k2="-1" k3="1" result="shadowInnerInner1"></feComposite>
            <feColorMatrix values="0 0 0 0 0   0 0 0 0 0   0 0 0 0 0  0 0 0 0.731487772 0" type="matrix" in="shadowInnerInner1"></feColorMatrix>
        </filter>
        <rect id="path-14" x="9" y="7" width="456" height="952" rx="66"></rect>
        <filter x="-50%" y="-50%" width="200%" height="200%" filterUnits="objectBoundingBox" id="filter-15">
            <feGaussianBlur stdDeviation="4" in="SourceAlpha" result="shadowBlurInner1"></feGaussianBlur>
            <feOffset dx="17" dy="2" in="shadowBlurInner1" result="shadowOffsetInner1"></feOffset>
            <feComposite in="shadowOffsetInner1" in2="SourceAlpha" operator="arithmetic" k2="-1" k3="1" result="shadowInnerInner1"></feComposite>
            <feColorMatrix values="0 0 0 0 1   0 0 0 0 1   0 0 0 0 1  0 0 0 0.180197011 0" type="matrix" in="shadowInnerInner1"></feColorMatrix>
        </filter>
        <mask id="mask-16" maskContentUnits="userSpaceOnUse" maskUnits="objectBoundingBox" x="0" y="0" width="456" height="952" fill="white">
            <use xlink:href="#path-14"></use>
        </mask>
        <mask id="mask-17" maskContentUnits="userSpaceOnUse" maskUnits="objectBoundingBox" x="0" y="0" width="456" height="952" fill="white">
            <use xlink:href="#path-14"></use>
        </mask>
        <mask id="mask-18" maskContentUnits="userSpaceOnUse" maskUnits="objectBoundingBox" x="0" y="0" width="456" height="952" fill="white">
            <use xlink:href="#path-14"></use>
        </mask>
        <circle id="path-19" cx="237" cy="904" r="33"></circle>
        <mask id="mask-20" maskContentUnits="userSpaceOnUse" maskUnits="objectBoundingBox" x="-3" y="-3" width="72" height="72">
            <rect x="201" y="868" width="72" height="72" fill="white"></rect>
            <use xlink:href="#path-19" fill="black"></use>
        </mask>
        <linearGradient x1="22.8838963%" y1="22.6850641%" x2="84.0600591%" y2="81.5982786%" id="linearGradient-21">
            <stop stop-color="#222222" offset="0%"></stop>
            <stop stop-color="#727272" offset="100%"></stop>
        </linearGradient>
        <circle id="path-22" cx="8" cy="8" r="8"></circle>
        <mask id="mask-23" maskContentUnits="userSpaceOnUse" maskUnits="objectBoundingBox" x="-1" y="-1" width="18" height="18">
            <rect x="-1" y="-1" width="18" height="18" fill="white"></rect>
            <use xlink:href="#path-22" fill="black"></use>
        </mask>
        <linearGradient x1="18.0650929%" y1="12.3041355%" x2="86.1094114%" y2="84.0053305%" id="linearGradient-24">
            <stop stop-color="#191919" offset="0%"></stop>
            <stop stop-color="#565656" offset="100%"></stop>
        </linearGradient>
        <radialGradient cx="27.1469145%" cy="24.56124%" fx="27.1469145%" fy="24.56124%" r="76.8984219%" id="radialGradient-25">
            <stop stop-color="#0F66AB" offset="0%"></stop>
            <stop stop-color="#011437" offset="55.0855509%"></stop>
            <stop stop-color="#011437" offset="72.2938609%"></stop>
            <stop stop-color="#0A5397" offset="100%"></stop>
        </radialGradient>
        <radialGradient cx="15.855174%" cy="71.1082487%" fx="15.855174%" fy="71.1082487%" r="94.7770306%" id="radialGradient-26">
            <stop stop-color="#2A9EC4" stop-opacity="0.801183364" offset="0%"></stop>
            <stop stop-color="#2A9EC4" stop-opacity="0" offset="22.6223277%"></stop>
            <stop stop-color="#2A9EC4" stop-opacity="0" offset="77.0535141%"></stop>
            <stop stop-color="#2A9EC4" stop-opacity="0.803452436" offset="100%"></stop>
        </radialGradient>
        <path d="M8,12.2352941 C10.3390885,12.2352941 12.2352941,10.3390885 12.2352941,8 C12.2352941,5.66091153 10.3390885,3.76470588 8,3.76470588 C5.66091153,3.76470588 3.76470588,5.66091153 3.76470588,8 C3.76470588,10.3390885 5.66091153,12.2352941 8,12.2352941 Z" id="path-27"></path>
        <filter x="-50%" y="-50%" width="200%" height="200%" filterUnits="objectBoundingBox" id="filter-28">
            <feMorphology radius="1" operator="dilate" in="SourceAlpha" result="shadowSpreadOuter1"></feMorphology>
            <feOffset dx="0" dy="1" in="shadowSpreadOuter1" result="shadowOffsetOuter1"></feOffset>
            <feGaussianBlur stdDeviation="2" in="shadowOffsetOuter1" result="shadowBlurOuter1"></feGaussianBlur>
            <feComposite in="shadowBlurOuter1" in2="SourceAlpha" operator="out" result="shadowBlurOuter1"></feComposite>
            <feColorMatrix values="0 0 0 0 0   0 0 0 0 0   0 0 0 0 0  0 0 0 1 0" type="matrix" in="shadowBlurOuter1"></feColorMatrix>
        </filter>
        <filter x="-50%" y="-50%" width="200%" height="200%" filterUnits="objectBoundingBox" id="filter-29">
            <feGaussianBlur stdDeviation="0.5" in="SourceAlpha" result="shadowBlurInner1"></feGaussianBlur>
            <feOffset dx="0" dy="1" in="shadowBlurInner1" result="shadowOffsetInner1"></feOffset>
            <feComposite in="shadowOffsetInner1" in2="SourceAlpha" operator="arithmetic" k2="-1" k3="1" result="shadowInnerInner1"></feComposite>
            <feColorMatrix values="0 0 0 0 0.164705882   0 0 0 0 0.619607843   0 0 0 0 0.768627451  0 0 0 0.198443244 0" type="matrix" in="shadowInnerInner1"></feColorMatrix>
        </filter>
        <mask id="mask-30" maskContentUnits="userSpaceOnUse" maskUnits="objectBoundingBox" x="-1" y="-1" width="10.4705882" height="10.4705882">
            <rect x="2.76470588" y="2.76470588" width="10.4705882" height="10.4705882" fill="white"></rect>
            <use xlink:href="#path-27" fill="black"></use>
        </mask>
        <rect id="path-31" x="-34.5" y="33.5" width="75" height="7" rx="70"></rect>
        <filter x="-50%" y="-50%" width="200%" height="200%" filterUnits="objectBoundingBox" id="filter-33">
            <feOffset dx="0" dy="-1" in="SourceAlpha" result="shadowOffsetInner1"></feOffset>
            <feComposite in="shadowOffsetInner1" in2="SourceAlpha" operator="arithmetic" k2="-1" k3="1" result="shadowInnerInner1"></feComposite>
            <feColorMatrix values="0 0 0 0 0.149019608   0 0 0 0 0.149019608   0 0 0 0 0.149019608  0 0 0 1 0" type="matrix" in="shadowInnerInner1"></feColorMatrix>
        </filter>
        <path d="M5.91334372,52 L6.41334372,52 L6.41334372,51 L5.91334372,51 L0.0479420286,51 L-0.452057971,51 L-0.452057971,52 L0.0479420286,52 L5.91334372,52 Z M5.91334372,54 L6.41334372,54 L6.41334372,53 L5.91334372,53 L0.0479420286,53 L-0.452057971,53 L-0.452057971,54 L0.0479420286,54 L5.91334372,54 Z M5.91334372,56 L6.41334372,56 L6.41334372,55 L5.91334372,55 L0.0479420286,55 L-0.452057971,55 L-0.452057971,56 L0.0479420286,56 L5.91334372,56 Z M5.91334372,58 L6.41334372,58 L6.41334372,57 L5.91334372,57 L0.0479420286,57 L-0.452057971,57 L-0.452057971,58 L0.0479420286,58 L5.91334372,58 Z M5.91334372,60 L6.41334372,60 L6.41334372,59 L5.91334372,59 L0.0479420286,59 L-0.452057971,59 L-0.452057971,60 L0.0479420286,60 L5.91334372,60 Z M5.91334372,62 L6.41334372,62 L6.41334372,61 L5.91334372,61 L0.0479420286,61 L-0.452057971,61 L-0.452057971,62 L0.0479420286,62 L5.91334372,62 Z M5.91334372,64 L6.41334372,64 L6.41334372,63 L5.91334372,63 L0.0479420286,63 L-0.452057971,63 L-0.452057971,64 L0.0479420286,64 L5.91334372,64 Z M5.91334372,66 L6.41334372,66 L6.41334372,65 L5.91334372,65 L0.0479420286,65 L-0.452057971,65 L-0.452057971,66 L0.0479420286,66 L5.91334372,66 Z M5.91334372,68 L6.41334372,68 L6.41334372,67 L5.91334372,67 L0.0479420286,67 L-0.452057971,67 L-0.452057971,68 L0.0479420286,68 L5.91334372,68 Z M5.91334372,70 L6.41334372,70 L6.41334372,69 L5.91334372,69 L0.0479420286,69 L-0.452057971,69 L-0.452057971,70 L0.0479420286,70 L5.91334372,70 Z M5.91334372,72 L6.41334372,72 L6.41334372,71 L5.91334372,71 L0.0479420286,71 L-0.452057971,71 L-0.452057971,72 L0.0479420286,72 L5.91334372,72 Z M5.91334372,74 L6.41334372,74 L6.41334372,73 L5.91334372,73 L0.0479420286,73 L-0.452057971,73 L-0.452057971,74 L0.0479420286,74 L5.91334372,74 Z M5.91334372,44 L6.41334372,44 L6.41334372,43 L5.91334372,43 L0.0479420286,43 L-0.452057971,43 L-0.452057971,44 L0.0479420286,44 L5.91334372,44 Z M5.91334372,46 L6.41334372,46 L6.41334372,45 L5.91334372,45 L0.0479420286,45 L-0.452057971,45 L-0.452057971,46 L0.0479420286,46 L5.91334372,46 Z M5.91334372,48 L6.41334372,48 L6.41334372,47 L5.91334372,47 L0.0479420286,47 L-0.452057971,47 L-0.452057971,48 L0.0479420286,48 L5.91334372,48 Z M5.91334372,50 L6.41334372,50 L6.41334372,49 L5.91334372,49 L0.0479420286,49 L-0.452057971,49 L-0.452057971,50 L0.0479420286,50 L5.91334372,50 Z M5.91334372,36 L6.41334372,36 L6.41334372,35 L5.91334372,35 L0.0479420286,35 L-0.452057971,35 L-0.452057971,36 L0.0479420286,36 L5.91334372,36 Z M5.91334372,38 L6.41334372,38 L6.41334372,37 L5.91334372,37 L0.0479420286,37 L-0.452057971,37 L-0.452057971,38 L0.0479420286,38 L5.91334372,38 Z M5.91334372,40 L6.41334372,40 L6.41334372,39 L5.91334372,39 L0.0479420286,39 L-0.452057971,39 L-0.452057971,40 L0.0479420286,40 L5.91334372,40 Z M5.91334372,42 L6.41334372,42 L6.41334372,41 L5.91334372,41 L0.0479420286,41 L-0.452057971,41 L-0.452057971,42 L0.0479420286,42 L5.91334372,42 Z M5.91334372,28 L6.41334372,28 L6.41334372,27 L5.91334372,27 L0.0479420286,27 L-0.452057971,27 L-0.452057971,28 L0.0479420286,28 L5.91334372,28 Z M5.91334372,30 L6.41334372,30 L6.41334372,29 L5.91334372,29 L0.0479420286,29 L-0.452057971,29 L-0.452057971,30 L0.0479420286,30 L5.91334372,30 Z M5.91334372,32 L6.41334372,32 L6.41334372,31 L5.91334372,31 L0.0479420286,31 L-0.452057971,31 L-0.452057971,32 L0.0479420286,32 L5.91334372,32 Z M5.91334372,34 L6.41334372,34 L6.41334372,33 L5.91334372,33 L0.0479420286,33 L-0.452057971,33 L-0.452057971,34 L0.0479420286,34 L5.91334372,34 Z M5.91334372,20 L6.41334372,20 L6.41334372,19 L5.91334372,19 L0.0479420286,19 L-0.452057971,19 L-0.452057971,20 L0.0479420286,20 L5.91334372,20 Z M5.91334372,22 L6.41334372,22 L6.41334372,21 L5.91334372,21 L0.0479420286,21 L-0.452057971,21 L-0.452057971,22 L0.0479420286,22 L5.91334372,22 Z M5.91334372,24 L6.41334372,24 L6.41334372,23 L5.91334372,23 L0.0479420286,23 L-0.452057971,23 L-0.452057971,24 L0.0479420286,24 L5.91334372,24 Z M5.91334372,26 L6.41334372,26 L6.41334372,25 L5.91334372,25 L0.0479420286,25 L-0.452057971,25 L-0.452057971,26 L0.0479420286,26 L5.91334372,26 Z M5.91334372,18 L6.41334372,18 L6.41334372,17 L5.91334372,17 L0.0479420286,17 L-0.452057971,17 L-0.452057971,18 L0.0479420286,18 L5.91334372,18 Z M5.91334372,16 L6.41334372,16 L6.41334372,15 L5.91334372,15 L0.0479420286,15 L-0.452057971,15 L-0.452057971,16 L0.0479420286,16 L5.91334372,16 Z M5.91334372,14 L6.41334372,14 L6.41334372,13 L5.91334372,13 L0.0479420286,13 L-0.452057971,13 L-0.452057971,14 L0.0479420286,14 L5.91334372,14 Z M5.91334372,12 L6.41334372,12 L6.41334372,11 L5.91334372,11 L0.0479420286,11 L-0.452057971,11 L-0.452057971,12 L0.0479420286,12 L5.91334372,12 Z M5.91334372,4 L6.41334372,4 L6.41334372,3 L5.91334372,3 L0.0479420286,3 L-0.452057971,3 L-0.452057971,4 L0.0479420286,4 L5.91334372,4 Z M5.91334372,6 L6.41334372,6 L6.41334372,5 L5.91334372,5 L0.0479420286,5 L-0.452057971,5 L-0.452057971,6 L0.0479420286,6 L5.91334372,6 Z M5.91334372,8 L6.41334372,8 L6.41334372,7 L5.91334372,7 L0.0479420286,7 L-0.452057971,7 L-0.452057971,8 L0.0479420286,8 L5.91334372,8 Z M5.91334372,10 L6.41334372,10 L6.41334372,9 L5.91334372,9 L0.0479420286,9 L-0.452057971,9 L-0.452057971,10 L0.0479420286,10 L5.91334372,10 Z M5.91334372,0 L6.41334372,0 L6.41334372,-1 L5.91334372,-1 L0.0479420286,-1 L-0.452057971,-1 L-0.452057971,0 L0.0479420286,0 L5.91334372,0 Z M5.91334372,2 L6.41334372,2 L6.41334372,1 L5.91334372,1 L0.0479420286,1 L-0.452057971,1 L-0.452057971,2 L0.0479420286,2 L5.91334372,2 Z" id="path-34"></path>
        <path d="M40.0016556,34 L40.5016556,34 L40.5016556,33 L40.0016556,33 L-35.5,33 L-36,33 L-36,34 L-35.5,34 L40.0016556,34 Z M40.0016556,36 L40.5016556,36 L40.5016556,35 L40.0016556,35 L-35.5,35 L-36,35 L-36,36 L-35.5,36 L40.0016556,36 Z M40.0016556,38 L40.5016556,38 L40.5016556,37 L40.0016556,37 L-35.5,37 L-36,37 L-36,38 L-35.5,38 L40.0016556,38 Z M40.0016556,40 L40.5016556,40 L40.5016556,39 L40.0016556,39 L-35.5,39 L-36,39 L-36,40 L-35.5,40 L40.0016556,40 Z" id="path-36"></path>
        <rect id="path-38" x="-33.5" y="33.5" width="75" height="7" rx="70"></rect>
        <mask id="mask-39" maskContentUnits="userSpaceOnUse" maskUnits="objectBoundingBox" x="-5" y="-5" width="85" height="17">
            <rect x="-38.5" y="28.5" width="85" height="17" fill="white"></rect>
            <use xlink:href="#path-38" fill="black"></use>
        </mask>
        <mask id="mask-41" maskContentUnits="userSpaceOnUse" maskUnits="objectBoundingBox" x="-5" y="-5" width="85" height="17">
            <rect x="-38.5" y="28.5" width="85" height="17" fill="white"></rect>
            <use xlink:href="#path-38" fill="black"></use>
        </mask>
    </defs>
    <g id="Page-1" stroke="none" stroke-width="1" fill="none" fill-rule="evenodd">
        <g id="iPhone-6-Black-4.7-Inch-Form-Factor" transform="translate(-296.000000, -161.000000)">
            <g id="Group-5" transform="translate(296.000000, 161.000000)">
                <g id="iPhone-6-Black">
                    <g id="Phone-Body">
                        <g id="Vibrate">
                            <use fill="#000000" fill-rule="evenodd" xlink:href="#path-2"></use>
                            <use fill-opacity="0.800000012" fill="url(#radialGradient-1)" fill-rule="evenodd" xlink:href="#path-2"></use>
                            <use fill="black" fill-opacity="1" filter="url(#filter-3)" xlink:href="#path-2"></use>
                        </g>
                        <g id="Vol-Up">
                            <use fill="#000000" fill-rule="evenodd" xlink:href="#path-5"></use>
                            <use fill-opacity="0.800000012" fill="url(#radialGradient-4)" fill-rule="evenodd" xlink:href="#path-5"></use>
                            <use fill="black" fill-opacity="1" filter="url(#filter-6)" xlink:href="#path-5"></use>
                        </g>
                        <g id="Power">
                            <use fill="#000000" fill-rule="evenodd" xlink:href="#path-8"></use>
                            <use fill-opacity="0.800000012" fill="url(#radialGradient-7)" fill-rule="evenodd" xlink:href="#path-8"></use>
                            <use fill="black" fill-opacity="1" filter="url(#filter-9)" xlink:href="#path-8"></use>
                        </g>
                        <g id="Vol-Down">
                            <use fill="#000000" fill-rule="evenodd" xlink:href="#path-10"></use>
                            <use fill-opacity="0.800000012" fill="url(#radialGradient-4)" fill-rule="evenodd" xlink:href="#path-10"></use>
                            <use fill="black" fill-opacity="1" filter="url(#filter-11)" xlink:href="#path-10"></use>
                        </g>
                        <g id="Rectangle-1">
                            <use fill="#8C8D93" fill-rule="evenodd" xlink:href="#path-12"></use>
                            <use fill="black" fill-opacity="1" filter="url(#filter-13)" xlink:href="#path-12"></use>
                        </g>
                        <g id="Rectangle-2">
                            <use fill="#070707" fill-rule="evenodd" xlink:href="#path-14"></use>
                            <use fill="black" fill-opacity="1" filter="url(#filter-15)" xlink:href="#path-14"></use>
                            <use stroke="#0D0D0D" mask="url(#mask-16)" stroke-width="24" xlink:href="#path-14"></use>
                            <use stroke="#1F1F1F" mask="url(#mask-17)" stroke-width="22" xlink:href="#path-14"></use>
                            <use stroke="#272727" mask="url(#mask-18)" stroke-width="20" xlink:href="#path-14"></use>
                        </g>
                    </g>
                    <g id="Home-Button">
                        <use fill="#000000" fill-rule="evenodd" xlink:href="#path-19"></use>
                        <use stroke="" mask="url(#mask-20)" stroke-width="6" xlink:href="#path-19"></use>
                    </g>
                    <g id="Cam" transform="translate(153.000000, 53.000000)">
                        <g id="Front-Cam-3">
                            <use fill="url(#linearGradient-21)" fill-rule="evenodd" xlink:href="#path-22"></use>
                            <use stroke="#000000" mask="url(#mask-23)" stroke-width="2" xlink:href="#path-22"></use>
                        </g>
                        <circle id="Front-Cam-4" fill="url(#linearGradient-24)" cx="8" cy="8" r="5.17647059"></circle>
                        <g id="Oval-3">
                            <use fill="black" fill-opacity="1" filter="url(#filter-28)" xlink:href="#path-27"></use>
                            <use fill="url(#radialGradient-25)" fill-rule="evenodd" xlink:href="#path-27"></use>
                            <use fill="url(#radialGradient-26)" fill-rule="evenodd" xlink:href="#path-27"></use>
                            <use fill="black" fill-opacity="1" filter="url(#filter-29)" xlink:href="#path-27"></use>
                            <use stroke-opacity="0.195369945" stroke="#000000" mask="url(#mask-30)" stroke-width="2" xlink:href="#path-27"></use>
                        </g>
                    </g>
                    <g id="Mesh-Speaker-Grill" transform="translate(199.000000, 50.000000)">
                        <g id="Group" transform="translate(5.000000, 3.500000) rotate(-270.000000) translate(-5.000000, -3.500000) translate(2.000000, 0.000000)"></g>
                        <g id="Group-2" transform="translate(9.000000, 3.500000) rotate(-270.000000) translate(-9.000000, -3.500000) translate(6.000000, -4.000000)"></g>
                        <g id="Group-3" transform="translate(13.000000, 3.500000) rotate(-270.000000) translate(-13.000000, -3.500000) translate(10.000000, -8.000000)"></g>
                        <g id="Group-4" transform="translate(17.000000, 3.500000) rotate(-270.000000) translate(-17.000000, -3.500000) translate(14.000000, -12.000000)"></g>
                        <g id="Group-6" transform="translate(38.000000, 12.500000) rotate(-270.000000) translate(-38.000000, -12.500000) translate(34.000000, -25.000000)">
                            <mask id="mask-32" fill="white">
                                <use xlink:href="#path-31"></use>
                            </mask>
                            <g id="Rectangle-6" transform="translate(3.000000, 37.000000) rotate(-90.000000) translate(-3.000000, -37.000000) ">
                                <use fill="#404041" fill-rule="evenodd" xlink:href="#path-31"></use>
                                <use fill="black" fill-opacity="1" filter="url(#filter-33)" xlink:href="#path-31"></use>
                            </g>
                            <mask id="mask-35" fill="white">
                                <use xlink:href="#path-34"></use>
                            </mask>
                            <use id="Line-8" fill="#979797" opacity="0.1" xlink:href="#path-34"></use>
                            <mask id="mask-37" fill="white">
                                <use xlink:href="#path-36"></use>
                            </mask>
                            <use id="Line" fill="#979797" opacity="0.1" transform="translate(2.500000, 36.500000) rotate(-90.000000) translate(-2.500000, -36.500000) " xlink:href="#path-36"></use>
                            <mask id="mask-40" fill="white">
                                <use xlink:href="#path-38"></use>
                            </mask>
                            <g id="Rectangle-7" stroke="#070707" mask="url(#mask-39)" stroke-width="10" transform="translate(4.000000, 37.000000) rotate(-90.000000) translate(-4.000000, -37.000000) ">
                                <use mask="url(#mask-41)" xlink:href="#path-38"></use>
                            </g>
                        </g>
                        <g id="Group-7" transform="translate(53.000000, 3.500000) rotate(-270.000000) translate(-53.000000, -3.500000) translate(50.000000, 0.000000)"></g>
                        <g id="Group-8" transform="translate(61.000000, 3.500000) rotate(-270.000000) translate(-61.000000, -3.500000) translate(58.000000, 0.000000)"></g>
                        <g id="Group-9" transform="translate(69.000000, 3.500000) rotate(-270.000000) translate(-69.000000, -3.500000) translate(66.000000, 0.000000)"></g>
                        <g id="Group-10" transform="translate(75.000000, 3.500000) rotate(-270.000000) translate(-75.000000, -3.500000) translate(72.000000, 2.000000)"></g>
                    </g>
                </g>
                <rect id="**REPLACE-ME**-Screen" fill="#FFFFFF" x="30" y="115" width="414" height="735"></rect>
            </g>
        </g>
    </g>
</svg>